<svg width="714" height="149" viewBox="65.0 102.0 714.0 149.0" fill="none" xmlns="http://www.w3.org/2000/svg">

<path d="M199.088 189.906H193.867L196.006 187.589H196.949L199.088 189.906Z" fill="#08080D"></path>
<path d="M207.36 198.856H185.603L187.742 196.539H205.221L207.36 198.856Z" fill="#08080D"></path>
<path d="M215.624 207.807H177.339L179.478 205.49H213.484L215.624 207.807Z" fill="#08080D"></path>
<path d="M223.89 216.76H172.209L170.641 215.061L171.213 214.443H221.751L223.89 216.76Z" fill="#08080D"></path>
<path d="M232.163 225.715H180.482L178.343 223.398H230.024L232.163 225.715Z" fill="#08080D"></path>
<path d="M240.427 234.667H188.746L186.607 232.35H238.288L240.427 234.667Z" fill="#08080D"></path>
<path d="M248.693 243.618H197.012L194.873 241.301H246.554L248.693 243.618Z" fill="#08080D"></path>
<path d="M249.47 110.029L196.086 167.835L170.247 139.853L197.785 110.029H249.47Z" fill="#464C9F"></path>
<path d="M187.023 177.652L161.18 205.638L126.104 243.617H74.423L127.773 185.846H153.499L162.08 177.266L153.43 168.619H126.996L72.8899 110.029H124.575L161.18 149.67L187.023 177.652Z" fill="#08080D"></path>
<path d="M199.087 189.906H193.866L196.005 187.589H196.948L199.087 189.906Z" fill="#464C9F"></path>
<path d="M207.36 198.856H185.603L187.742 196.539H205.22L207.36 198.856Z" fill="#464C9F"></path>
<path d="M215.624 207.807H177.339L179.479 205.49H213.485L215.624 207.807Z" fill="#464C9F"></path>
<path d="M223.891 216.76H172.209L170.641 215.061L171.213 214.443H221.751L223.891 216.76Z" fill="#464C9F"></path>
<path d="M232.164 225.715H180.482L178.343 223.398H230.024L232.164 225.715Z" fill="#464C9F"></path>
<path d="M240.427 234.667H188.746L186.606 232.35H238.288L240.427 234.667Z" fill="#464C9F"></path>
<path d="M248.694 243.618H197.013L194.873 241.301H246.555L248.694 243.618Z" fill="#464C9F"></path>
<path d="M294.412 232.419C283.982 232.419 274.387 229.968 265.626 225.066C256.969 220.164 250.085 213.385 244.975 204.728C239.864 196.072 237.309 186.32 237.309 175.473C237.309 164.626 239.864 154.874 244.975 146.217C250.085 137.561 256.969 130.834 265.626 126.036C274.387 121.134 283.982 118.683 294.412 118.683C304.842 118.683 314.385 121.134 323.041 126.036C331.698 130.834 338.53 137.561 343.536 146.217C348.646 154.874 351.202 164.626 351.202 175.473C351.202 186.32 348.646 196.072 343.536 204.728C338.53 213.385 331.646 220.164 322.885 225.066C314.228 229.968 304.737 232.419 294.412 232.419ZM294.412 200.035C301.295 200.035 306.615 197.845 310.369 193.464C314.124 188.979 316.001 182.982 316.001 175.473C316.001 167.859 314.124 161.862 310.369 157.482C306.615 152.997 301.295 150.754 294.412 150.754C287.424 150.754 282.052 152.997 278.298 157.482C274.543 161.862 272.666 167.859 272.666 175.473C272.666 182.982 274.543 188.979 278.298 193.464C282.052 197.845 287.424 200.035 294.412 200.035ZM410.039 231.324L389.232 191.587H389.075V231.324H354.344V120.56H405.971C414.941 120.56 422.607 122.177 428.969 125.41C435.331 128.539 440.077 132.867 443.206 138.395C446.439 143.819 448.055 149.972 448.055 156.856C448.055 164.261 445.969 170.832 441.798 176.568C437.73 182.304 431.837 186.424 424.119 188.927L448.212 231.324H410.039ZM389.075 168.433H402.842C406.18 168.433 408.683 167.703 410.352 166.243C412.021 164.678 412.855 162.279 412.855 159.046C412.855 156.126 411.968 153.831 410.195 152.162C408.527 150.494 406.076 149.659 402.842 149.659H389.075V168.433ZM503.738 232.419C493.308 232.419 483.713 229.968 474.952 225.066C466.295 220.164 459.412 213.385 454.301 204.728C449.19 196.072 446.635 186.32 446.635 175.473C446.635 164.626 449.19 154.874 454.301 146.217C459.412 137.561 466.295 130.834 474.952 126.036C483.713 121.134 493.308 118.683 503.738 118.683C514.168 118.683 523.711 121.134 532.368 126.036C541.024 130.834 547.856 137.561 552.862 146.217C557.973 154.874 560.528 164.626 560.528 175.473C560.528 186.32 557.973 196.072 552.862 204.728C547.856 213.385 540.972 220.164 532.211 225.066C523.555 229.968 514.064 232.419 503.738 232.419ZM503.738 200.035C510.622 200.035 515.941 197.845 519.696 193.464C523.45 188.979 525.328 182.982 525.328 175.473C525.328 167.859 523.45 161.862 519.696 157.482C515.941 152.997 510.622 150.754 503.738 150.754C496.75 150.754 491.379 152.997 487.624 157.482C483.869 161.862 481.992 167.859 481.992 175.473C481.992 182.982 483.869 188.979 487.624 193.464C491.379 197.845 496.75 200.035 503.738 200.035ZM619.365 231.324L598.558 191.587H598.401V231.324H563.67V120.56H615.298C624.267 120.56 631.933 122.177 638.295 125.41C644.657 128.539 649.403 132.867 652.532 138.395C655.765 143.819 657.382 149.972 657.382 156.856C657.382 164.261 655.296 170.832 651.124 176.568C647.056 182.304 641.163 186.424 633.445 188.927L657.538 231.324H619.365ZM598.401 168.433H612.169C615.506 168.433 618.009 167.703 619.678 166.243C621.347 164.678 622.181 162.279 622.181 159.046C622.181 156.126 621.295 153.831 619.522 152.162C617.853 150.494 615.402 149.659 612.169 149.659H598.401V168.433ZM730.117 214.584H693.196L687.72 231.324H651.268L691.788 120.56H731.838L772.201 231.324H735.593L730.117 214.584ZM721.669 188.458L711.656 157.638L701.644 188.458H721.669Z" fill="black"></path>
</svg>