<svg width="714" height="149" viewBox="65.0 102.0 714.0 149.0" fill="none" xmlns="http://www.w3.org/2000/svg">

<path d="M199.089 189.906H193.867L196.007 187.589H196.949L199.089 189.906Z" fill="#08080D"></path>
<path d="M207.361 198.858H185.604L187.743 196.541H205.221L207.361 198.858Z" fill="#08080D"></path>
<path d="M215.623 207.809H177.338L179.477 205.492H213.484L215.623 207.809Z" fill="#08080D"></path>
<path d="M223.889 216.761H172.208L170.64 215.062L171.211 214.444H221.75L223.889 216.761Z" fill="#08080D"></path>
<path d="M232.162 225.716H180.48L178.341 223.399H230.023L232.162 225.716Z" fill="#08080D"></path>
<path d="M240.428 234.668H188.747L186.607 232.351H238.289L240.428 234.668Z" fill="#08080D"></path>
<path d="M248.693 243.619H197.011L194.871 241.302H246.553L248.693 243.619Z" fill="#08080D"></path>
<path d="M249.472 110.029L196.087 167.836L170.248 139.854L197.786 110.029H249.472Z" fill="#464C9F"></path>
<path d="M187.023 177.652L161.18 205.639L126.103 243.619H74.4215L127.772 185.847H153.499L162.08 177.266L153.429 168.62H126.995L72.8884 110.029H124.574L161.18 149.67L187.023 177.652Z" fill="#D9D9D9"></path>
<path d="M199.089 189.906H193.867L196.007 187.589H196.949L199.089 189.906Z" fill="#464C9F"></path>
<path d="M207.362 198.858H185.605L187.744 196.541H205.222L207.362 198.858Z" fill="#464C9F"></path>
<path d="M215.623 207.809H177.337L179.477 205.492H213.483L215.623 207.809Z" fill="#464C9F"></path>
<path d="M223.889 216.761H172.207L170.639 215.062L171.21 214.444H221.749L223.889 216.761Z" fill="#464C9F"></path>
<path d="M232.162 225.716H180.48L178.341 223.399H230.022L232.162 225.716Z" fill="#464C9F"></path>
<path d="M240.429 234.668H188.747L186.608 232.351H238.29L240.429 234.668Z" fill="#464C9F"></path>
<path d="M248.693 243.619H197.011L194.871 241.302H246.553L248.693 243.619Z" fill="#464C9F"></path>
<path d="M294.413 232.419C283.984 232.419 274.388 229.968 265.627 225.066C256.971 220.164 250.087 213.385 244.976 204.728C239.866 196.072 237.311 186.32 237.311 175.473C237.311 164.626 239.866 154.874 244.976 146.217C250.087 137.561 256.971 130.834 265.627 126.036C274.388 121.134 283.984 118.683 294.413 118.683C304.843 118.683 314.386 121.134 323.043 126.036C331.7 130.834 338.531 137.561 343.538 146.217C348.648 154.874 351.203 164.626 351.203 175.473C351.203 186.32 348.648 196.072 343.538 204.728C338.531 213.385 331.648 220.164 322.887 225.066C314.23 229.968 304.739 232.419 294.413 232.419ZM294.413 200.035C301.297 200.035 306.616 197.845 310.371 193.464C314.126 188.979 316.003 182.982 316.003 175.473C316.003 167.859 314.126 161.862 310.371 157.482C306.616 152.997 301.297 150.754 294.413 150.754C287.426 150.754 282.054 152.997 278.299 157.482C274.545 161.862 272.667 167.859 272.667 175.473C272.667 182.982 274.545 188.979 278.299 193.464C282.054 197.845 287.426 200.035 294.413 200.035ZM410.041 231.324L389.233 191.587H389.077V231.324H354.346V120.56H405.973C414.943 120.56 422.609 122.177 428.971 125.41C435.333 128.539 440.078 132.867 443.207 138.395C446.441 143.819 448.057 149.972 448.057 156.856C448.057 164.261 445.971 170.832 441.799 176.568C437.732 182.304 431.839 186.424 424.121 188.927L448.214 231.324H410.041ZM389.077 168.433H402.844C406.182 168.433 408.685 167.703 410.354 166.243C412.022 164.678 412.857 162.279 412.857 159.046C412.857 156.126 411.97 153.831 410.197 152.162C408.528 150.494 406.077 149.659 402.844 149.659H389.077V168.433ZM503.74 232.419C493.31 232.419 483.715 229.968 474.954 225.066C466.297 220.164 459.413 213.385 454.303 204.728C449.192 196.072 446.637 186.32 446.637 175.473C446.637 164.626 449.192 154.874 454.303 146.217C459.413 137.561 466.297 130.834 474.954 126.036C483.715 121.134 493.31 118.683 503.74 118.683C514.17 118.683 523.713 121.134 532.369 126.036C541.026 130.834 547.858 137.561 552.864 146.217C557.974 154.874 560.53 164.626 560.53 175.473C560.53 186.32 557.974 196.072 552.864 204.728C547.858 213.385 540.974 220.164 532.213 225.066C523.556 229.968 514.065 232.419 503.74 232.419ZM503.74 200.035C510.623 200.035 515.943 197.845 519.697 193.464C523.452 188.979 525.329 182.982 525.329 175.473C525.329 167.859 523.452 161.862 519.697 157.482C515.943 152.997 510.623 150.754 503.74 150.754C496.752 150.754 491.381 152.997 487.626 157.482C483.871 161.862 481.994 167.859 481.994 175.473C481.994 182.982 483.871 188.979 487.626 193.464C491.381 197.845 496.752 200.035 503.74 200.035ZM619.367 231.324L598.56 191.587H598.403V231.324H563.672V120.56H615.299C624.269 120.56 631.935 122.177 638.297 125.41C644.659 128.539 649.405 132.867 652.534 138.395C655.767 143.819 657.383 149.972 657.383 156.856C657.383 164.261 655.298 170.832 651.126 176.568C647.058 182.304 641.165 186.424 633.447 188.927L657.54 231.324H619.367ZM598.403 168.433H612.17C615.508 168.433 618.011 167.703 619.68 166.243C621.349 164.678 622.183 162.279 622.183 159.046C622.183 156.126 621.297 153.831 619.523 152.162C617.855 150.494 615.404 149.659 612.17 149.659H598.403V168.433ZM730.119 214.584H693.197L687.722 231.324H651.27L691.789 120.56H731.84L772.203 231.324H735.594L730.119 214.584ZM721.671 188.458L711.658 157.638L701.646 188.458H721.671Z" fill="white"></path>
</svg>